<svg width="833" height="351" viewBox="0 0 833 351" fill="none" xmlns="http://www.w3.org/2000/svg">
<g clip-path="url(#clip0)">
<path d="M36.3604 343.879C37.3393 347.493 40.692 349.731 40.692 349.731C40.692 349.731 42.4577 346.11 41.4788 342.496C40.5 338.882 37.1473 336.644 37.1473 336.644C37.1473 336.644 35.3816 340.265 36.3604 343.879Z" fill="#3F3D56"/>
<path d="M37.7988 343.103C40.4847 345.714 40.8128 349.728 40.8128 349.728C40.8128 349.728 36.7861 349.508 34.1002 346.897C31.4143 344.286 31.0862 340.272 31.0862 340.272C31.0862 340.272 35.1129 340.491 37.7988 343.103Z" fill="#3070B3"/>
<path d="M20.8243 247.445H17.4297V349.049H20.8243V247.445Z" fill="#3F3D56"/>
<path d="M37.6926 279.046C37.816 305.815 18.9861 327.602 18.9861 327.602C18.9861 327.602 -0.0438433 305.989 -0.167182 279.221C-0.290521 252.453 18.5394 230.666 18.5394 230.666C18.5394 230.666 37.5693 252.278 37.6926 279.046Z" fill="#427DBC"/>
<path d="M391.737 233.314C391.953 280.142 358.965 318.257 358.965 318.257C358.965 318.257 325.627 280.447 325.411 233.619C325.195 186.791 358.183 148.676 358.183 148.676C358.183 148.676 391.521 186.485 391.737 233.314Z" fill="#3070B3"/>
<path d="M128.831 266.751H163.091V258.492H181.992V266.751H217.433V303.327H181.992V349.341H163.091V303.327H128.831L111.111 283.269L128.831 266.751Z" fill="#3F3D56"/>
<g clip-path="url(#clip1)">
<path d="M291.87 105.049V337.8L213.18 326.809L117.522 346.37L116.752 346.528L40.6413 325.516V123.152L119.654 105.049L206.084 123.152L209.371 122.457L291.87 105.049Z" fill="#444053"/>
<path d="M278.647 117.76V326.01L208.242 316.177L122.653 333.678L121.963 333.817L53.8638 315.019V133.955L124.563 117.76L201.892 133.955L204.833 133.335L278.647 117.76Z" fill="white"/>
<path opacity="0.1" d="M213.179 326.809L117.522 346.37L119.654 105.049L206.084 123.152L209.371 122.457L213.179 326.809Z" fill="black"/>
<g opacity="0.3">
<path opacity="0.3" d="M203.627 149.659L203.666 217.384H231.723V189.583H279.776L285.42 182.329" stroke="#444053" stroke-width="3" stroke-miterlimit="10"/>
<path opacity="0.3" d="M47.4138 171.157H151.743L158.193 168.247H160.773V233.547H205.923L207.858 239.366V268.783H242.688V305.15" stroke="#444053" stroke-width="3" stroke-miterlimit="10"/>
<path opacity="0.3" d="M174.554 305.15V233.547" stroke="#444053" stroke-width="3" stroke-miterlimit="10"/>
<path opacity="0.3" d="M285.42 285.967H174.554" stroke="#444053" stroke-width="3" stroke-miterlimit="10"/>
<path opacity="0.3" d="M257.652 149.659V305.15" stroke="#444053" stroke-width="3" stroke-miterlimit="10"/>
<path opacity="0.3" d="M47.0913 272.222H285.42" stroke="#444053" stroke-width="3" stroke-miterlimit="10"/>
<path opacity="0.3" d="M76.0971 305.15V149.659" stroke="#444053" stroke-width="3" stroke-miterlimit="10"/>
<path opacity="0.3" d="M131.496 149.659V305.15" stroke="#444053" stroke-width="3" stroke-miterlimit="10"/>
<path opacity="0.3" d="M47.4138 188.936L231.723 189.583" stroke="#444053" stroke-width="3" stroke-miterlimit="10"/>
<path opacity="0.3" d="M101.055 149.941V305.15" stroke="#444053" stroke-width="3" stroke-miterlimit="10"/>
<path opacity="0.3" d="M47.0913 224.922H131.496L174.554 272.222" stroke="#444053" stroke-width="3" stroke-miterlimit="10"/>
<path opacity="0.3" d="M183.88 149.659V233.547" stroke="#444053" stroke-width="3" stroke-miterlimit="10"/>
<path opacity="0.3" d="M174.554 248.572H285.42" stroke="#444053" stroke-width="3" stroke-miterlimit="10"/>
</g>
<path d="M207.697 247.932H175.124V233.708L205.923 233.547L207.858 239.042L207.697 247.932Z" fill="#3070B3"/>
<path d="M191.572 174.228C186.844 174.228 182.309 176.11 178.966 179.462C175.622 182.813 173.744 187.358 173.744 192.098C173.744 201.967 191.572 234.032 191.572 234.032C191.572 234.032 209.4 201.98 209.4 192.098C209.4 187.358 207.522 182.813 204.178 179.462C200.835 176.11 196.3 174.228 191.572 174.228V174.228ZM191.572 199.72C190.021 199.72 188.504 199.259 187.214 198.395C185.925 197.532 184.919 196.304 184.326 194.867C183.732 193.431 183.577 191.85 183.879 190.325C184.182 188.8 184.929 187.399 186.026 186.299C187.123 185.2 188.52 184.451 190.042 184.148C191.563 183.844 193.14 184 194.573 184.595C196.007 185.19 197.232 186.198 198.093 187.491C198.955 188.784 199.415 190.304 199.415 191.859C199.414 193.943 198.588 195.942 197.117 197.416C195.646 198.889 193.652 199.717 191.572 199.717V199.72Z" fill="#3070B3"/>
<path opacity="0.1" d="M191.572 174.228C186.844 174.228 182.309 176.11 178.966 179.462C175.622 182.813 173.744 187.358 173.744 192.098C173.744 201.967 191.572 234.032 191.572 234.032C191.572 234.032 209.4 201.98 209.4 192.098C209.4 187.358 207.522 182.813 204.178 179.462C200.835 176.11 196.3 174.228 191.572 174.228V174.228ZM191.572 199.72C190.021 199.72 188.504 199.259 187.214 198.395C185.925 197.532 184.919 196.304 184.326 194.867C183.732 193.431 183.577 191.85 183.879 190.325C184.182 188.8 184.929 187.399 186.026 186.299C187.123 185.2 188.52 184.451 190.042 184.148C191.563 183.844 193.14 184 194.573 184.595C196.007 185.19 197.232 186.198 198.093 187.491C198.955 188.784 199.415 190.304 199.415 191.859C199.414 193.943 198.588 195.942 197.117 197.416C195.646 198.889 193.652 199.717 191.572 199.717V199.72Z" fill="black"/>
<path d="M191.572 176.814C186.844 176.814 182.309 178.696 178.966 182.048C175.622 185.399 173.744 189.944 173.744 194.684C173.744 204.553 191.572 236.618 191.572 236.618C191.572 236.618 209.4 204.566 209.4 194.684C209.4 189.944 207.522 185.399 204.178 182.048C200.835 178.696 196.3 176.814 191.572 176.814V176.814ZM191.572 202.306C190.021 202.306 188.504 201.845 187.214 200.981C185.925 200.118 184.919 198.89 184.326 197.453C183.732 196.017 183.577 194.436 183.879 192.911C184.182 191.386 184.929 189.985 186.026 188.885C187.123 187.786 188.52 187.037 190.042 186.734C191.563 186.431 193.14 186.586 194.573 187.181C196.007 187.776 197.232 188.784 198.093 190.077C198.955 191.37 199.415 192.89 199.415 194.445C199.414 196.529 198.588 198.528 197.117 200.002C195.646 201.475 193.652 202.303 191.572 202.303V202.306Z" fill="#3070B3"/>
</g>
<path d="M399.63 348.206H-0.369995V351.021H399.63V348.206Z" fill="#C5C5CC"/>
</g>
<g clip-path="url(#clip2)">
<path opacity="0.4" d="M786.493 78.8954C808.304 78.8954 825.985 61.2341 825.985 39.4477C825.985 17.6613 808.304 0 786.493 0C764.681 0 747 17.6613 747 39.4477C747 61.2341 764.681 78.8954 786.493 78.8954Z" fill="#FF6584"/>
<path opacity="0.4" d="M700.704 85.3446C716.004 85.3446 728.408 72.9553 728.408 57.6723C728.408 42.3893 716.004 30 700.704 30C685.403 30 673 42.3893 673 57.6723C673 72.9553 685.403 85.3446 700.704 85.3446Z" fill="#3070B3"/>
<path opacity="0.4" d="M499.121 137.059C514.421 137.059 526.825 124.67 526.825 109.387C526.825 94.104 514.421 81.7147 499.121 81.7147C483.821 81.7147 471.417 94.104 471.417 109.387C471.417 124.67 483.821 137.059 499.121 137.059Z" fill="#3070B3"/>
<path d="M307.573 337.386C309.714 345.291 317.047 350.187 317.047 350.187C317.047 350.187 320.909 342.266 318.768 334.361C316.627 326.456 309.294 321.56 309.294 321.56C309.294 321.56 305.432 329.481 307.573 337.386Z" fill="#3F3D56"/>
<path d="M310.719 335.687C316.593 341.399 317.311 350.18 317.311 350.18C317.311 350.18 308.504 349.7 302.629 343.988C296.754 338.275 296.037 329.494 296.037 329.494C296.037 329.494 304.844 329.975 310.719 335.687Z" fill="#3070B3"/>
<path d="M322.115 277.965L316.887 269.261L365.689 227.477H491.182V239.663L445.865 288.411L393.576 298.857L322.115 277.965Z" fill="#3F3D56"/>
<path d="M512.784 251.997V224.758H496.354V233.348L491.182 227.477L449.351 269.261L442.378 276.224L433.664 311.044L449.351 349.344H529.526V271.002L512.784 251.997Z" fill="#CCCCCC"/>
<path d="M449.351 269.26H316.887V349.344H449.351V269.26Z" fill="#F2F2F2"/>
<path d="M431.05 294.504H403.162V318.878H431.05V294.504Z" fill="#3F3D56"/>
<path d="M391.833 293.634H367.432V349.344H391.833V293.634Z" fill="#CCCCCC"/>
<path d="M339.545 302.338V293.634H329.088V302.338H338.673H339.545Z" fill="#3F3D56"/>
<path d="M338.673 309.302H329.088V318.007H339.545V309.302H338.673Z" fill="#3F3D56"/>
<path d="M356.974 293.634H346.517V302.339H356.974V293.634Z" fill="#3F3D56"/>
<path d="M356.974 309.302H346.517V318.007H356.974V309.302Z" fill="#3F3D56"/>
<path d="M486.824 303.209V294.504H476.366V303.209H485.952H486.824Z" fill="#3F3D56"/>
<path d="M485.952 310.173H476.366V318.877H486.824V310.173H485.952Z" fill="#3F3D56"/>
<path d="M504.254 294.504H493.796V303.209H504.254V294.504Z" fill="#3F3D56"/>
<path d="M504.254 310.173H493.796V318.878H504.254V310.173Z" fill="#3F3D56"/>
<path d="M590.529 131.725L581.815 124.76L630.618 81.236H754.366V119.538L674.191 173.508L590.529 131.725Z" fill="#3F3D56"/>
<path d="M776.929 105.651V82.1058H760.499V87.8725L754.367 81.236L714.278 124.76L698.593 135.207L674.27 312.705L710.951 349.344H796.198V126.501L776.929 105.651Z" fill="#CCCCCC"/>
<path d="M714.279 124.761H581.815V349.345H714.279V124.761Z" fill="#F2F2F2"/>
<path d="M657.633 294.504H633.232V349.344H657.633V294.504Z" fill="#CCCCCC"/>
<path d="M607.087 310.173V301.468H596.63V310.173H606.216H607.087Z" fill="#3F3D56"/>
<path d="M606.216 317.136H596.63V325.842H607.087V317.136H606.216Z" fill="#3F3D56"/>
<path d="M624.517 301.468H614.059V310.173H624.517V301.468Z" fill="#3F3D56"/>
<path d="M624.517 317.137H614.059V325.841H624.517V317.137Z" fill="#3F3D56"/>
<path d="M678.548 310.173V301.468H668.091V310.173H677.677H678.548Z" fill="#3F3D56"/>
<path d="M677.677 317.136H668.091V325.842H678.548V317.136H677.677Z" fill="#3F3D56"/>
<path d="M695.978 301.468H685.52V310.173H695.978V301.468Z" fill="#3F3D56"/>
<path d="M695.978 317.137H685.52V325.841H695.978V317.137Z" fill="#3F3D56"/>
<path d="M751.752 136.076V127.372H741.294V136.076H750.881H751.752Z" fill="#3F3D56"/>
<path d="M750.881 143.041H741.294V151.745H751.752V143.041H750.881Z" fill="#3F3D56"/>
<path d="M769.182 127.372H758.724V136.077H769.182V127.372Z" fill="#3F3D56"/>
<path d="M769.182 143.041H758.724V151.745H769.182V143.041Z" fill="#3F3D56"/>
<path d="M751.752 184.824V176.119H741.294V184.824H750.881H751.752Z" fill="#3F3D56"/>
<path d="M750.881 191.788H741.294V200.492H751.752V191.788H750.881Z" fill="#3F3D56"/>
<path d="M769.182 176.119H758.724V184.824H769.182V176.119Z" fill="#3F3D56"/>
<path d="M769.182 191.788H758.724V200.492H769.182V191.788Z" fill="#3F3D56"/>
<path d="M751.752 233.571V224.865H741.294V233.571H750.881H751.752Z" fill="#3F3D56"/>
<path d="M750.881 240.535H741.294V249.239H751.752V240.535H750.881Z" fill="#3F3D56"/>
<path d="M769.182 224.866H758.724V233.571H769.182V224.866Z" fill="#3F3D56"/>
<path d="M769.182 240.534H758.724V249.239H769.182V240.534Z" fill="#3F3D56"/>
<path d="M751.752 282.318V273.612H741.294V282.318H750.881H751.752Z" fill="#3F3D56"/>
<path d="M750.881 289.281H741.294V297.986H751.752V289.281H750.881Z" fill="#3F3D56"/>
<path d="M769.182 273.613H758.724V282.318H769.182V273.613Z" fill="#3F3D56"/>
<path d="M769.182 289.281H758.724V297.986H769.182V289.281Z" fill="#3F3D56"/>
<path d="M697.721 136.077H596.63V156.968H697.721V136.077Z" fill="#3F3D56"/>
<path d="M697.721 177.86H596.63V198.751H697.721V177.86Z" fill="#3F3D56"/>
<path d="M697.721 219.643H596.63V240.534H697.721V219.643Z" fill="#3F3D56"/>
<path d="M697.721 261.426H596.63V282.318H697.721V261.426Z" fill="#3F3D56"/>
<path d="M833 348.475H216V351H833V348.475Z" fill="#C5C5CC"/>
<path d="M557.018 248.745H554.491V348.475H557.018V248.745Z" fill="#3F3D56"/>
<path d="M580.346 261.454C580.507 296.328 555.944 324.712 555.944 324.712C555.944 324.712 531.12 296.555 530.959 261.682C530.798 226.808 555.361 198.424 555.361 198.424C555.361 198.424 580.185 226.581 580.346 261.454Z" fill="#3070B3"/>
<path d="M809.789 248.745H807.261V348.475H809.789V248.745Z" fill="#3F3D56"/>
<path d="M833.117 261.454C833.278 296.328 808.714 324.712 808.714 324.712C808.714 324.712 783.89 296.555 783.729 261.682C783.568 226.808 808.132 198.424 808.132 198.424C808.132 198.424 832.956 226.581 833.117 261.454Z" fill="#3070B3"/>
<path d="M282.559 60.402C258.546 60.5125 239 60.8666 239 60.8666C239 60.8666 262.233 30.1482 282.472 41.5292C302.711 52.9101 325.96 60.4666 325.96 60.4666C325.96 60.4666 306.573 60.2915 282.559 60.402Z" fill="#F2F2F2"/>
</g>
<defs>
<clipPath id="clip0">
<rect width="657" height="400" fill="white" transform="translate(-211 -49)"/>
</clipPath>
<clipPath id="clip1">
<rect width="297.927" height="243.648" fill="white" transform="translate(18.7208 105.049)"/>
</clipPath>
<clipPath id="clip2">
<rect width="1437" height="654" fill="white" transform="translate(236 -303)"/>
</clipPath>
</defs>
</svg>
