<svg width="822" height="320" viewBox="0 0 822 320" fill="none" xmlns="http://www.w3.org/2000/svg">
<g clip-path="url(#clip0)">
<path d="M377.959 317L377.065 316.799C387.034 272.549 412.087 232.367 447.609 203.653C474.465 181.978 506.406 167.481 540.424 161.529C574.442 155.576 609.419 158.363 642.06 169.626C674.702 180.89 703.934 200.26 727.005 225.913C750.076 251.566 766.226 282.657 773.935 316.259L773.042 316.462C751.939 223.98 670.732 159.389 575.561 159.389C481.638 159.389 398.534 225.674 377.959 317Z" fill="#3F3D56"/>
<path d="M506.14 56.5835C519.886 56.5835 531.029 45.4617 531.029 31.7421C531.029 18.0225 519.886 6.90063 506.14 6.90063C492.395 6.90063 481.252 18.0225 481.252 31.7421C481.252 45.4617 492.395 56.5835 506.14 56.5835Z" fill="#FF6584"/>
<path d="M398.915 311.357C399.691 314.221 402.35 315.994 402.35 315.994C402.35 315.994 403.75 313.125 402.974 310.261C402.197 307.397 399.539 305.623 399.539 305.623C399.539 305.623 398.138 308.493 398.915 311.357Z" fill="#3F3D56"/>
<path d="M400.055 310.741C402.185 312.811 402.445 315.992 402.445 315.992C402.445 315.992 399.252 315.818 397.122 313.749C394.992 311.679 394.732 308.498 394.732 308.498C394.732 308.498 397.925 308.672 400.055 310.741Z" fill="#3070B3"/>
<path d="M458.026 311.357C458.802 314.221 461.46 315.994 461.46 315.994C461.46 315.994 462.861 313.125 462.084 310.261C461.308 307.397 458.65 305.623 458.65 305.623C458.65 305.623 457.249 308.493 458.026 311.357Z" fill="#3F3D56"/>
<path d="M459.166 310.741C461.296 312.811 461.556 315.992 461.556 315.992C461.556 315.992 458.363 315.818 456.233 313.749C454.103 311.679 453.843 308.498 453.843 308.498C453.843 308.498 457.036 308.672 459.166 310.741Z" fill="#3070B3"/>
<path d="M469.747 83.2336L460.388 75.7604L512.797 29.0555H645.69V70.1559L559.59 128.07L469.747 83.2336Z" fill="#3F3D56"/>
<path d="M669.92 55.2543V29.9885H652.275V36.1761L645.69 29.0555L602.64 75.7604L585.794 86.9698L559.675 277.442L599.066 316.759H690.612V77.6287L669.92 55.2543Z" fill="#CCCCCC"/>
<path d="M602.64 75.7606H460.388V316.759H602.64V75.7606Z" fill="#F2F2F2"/>
<path d="M541.809 257.911H515.604V316.759H541.809V257.911Z" fill="#CCCCCC"/>
<path d="M487.528 274.724V265.383H476.298V274.724H486.592H487.528Z" fill="#3F3D56"/>
<path d="M486.592 282.197H476.298V291.538H487.528V282.197H486.592Z" fill="#3F3D56"/>
<path d="M506.246 265.383H495.015V274.724H506.246V265.383Z" fill="#3F3D56"/>
<path d="M506.246 282.197H495.015V291.538H506.246V282.197Z" fill="#3F3D56"/>
<path d="M564.269 274.724V265.383H553.039V274.724H563.334H564.269Z" fill="#3F3D56"/>
<path d="M563.334 282.197H553.039V291.538H564.269V282.197H563.334Z" fill="#3F3D56"/>
<path d="M582.987 265.383H571.756V274.724H582.987V265.383Z" fill="#3F3D56"/>
<path d="M582.987 282.197H571.756V291.538H582.987V282.197Z" fill="#3F3D56"/>
<path d="M642.883 87.9037V78.563H631.652V87.9037H641.947H642.883Z" fill="#3F3D56"/>
<path d="M641.947 95.3769H631.652V104.718H642.883V95.3769H641.947Z" fill="#3F3D56"/>
<path d="M661.6 78.5629H650.37V87.9039H661.6V78.5629Z" fill="#3F3D56"/>
<path d="M661.6 95.3767H650.37V104.718H661.6V95.3767Z" fill="#3F3D56"/>
<path d="M642.883 140.214V130.872H631.652V140.214H641.947H642.883Z" fill="#3F3D56"/>
<path d="M641.947 147.686H631.652V157.027H642.883V147.686H641.947Z" fill="#3F3D56"/>
<path d="M661.6 130.873H650.37V140.214H661.6V130.873Z" fill="#3F3D56"/>
<path d="M661.6 147.686H650.37V157.027H661.6V147.686Z" fill="#3F3D56"/>
<path d="M642.883 192.523V183.182H631.652V192.523H641.947H642.883Z" fill="#3F3D56"/>
<path d="M641.947 199.996H631.652V209.337H642.883V199.996H641.947Z" fill="#3F3D56"/>
<path d="M661.6 183.182H650.37V192.523H661.6V183.182Z" fill="#3F3D56"/>
<path d="M661.6 199.996H650.37V209.337H661.6V199.996Z" fill="#3F3D56"/>
<path d="M642.883 244.833V235.492H631.652V244.833H641.947H642.883Z" fill="#3F3D56"/>
<path d="M641.947 252.306H631.652V261.647H642.883V252.306H641.947Z" fill="#3F3D56"/>
<path d="M661.6 235.492H650.37V244.833H661.6V235.492Z" fill="#3F3D56"/>
<path d="M661.6 252.306H650.37V261.647H661.6V252.306Z" fill="#3F3D56"/>
<path d="M584.859 87.9039H476.298V110.322H584.859V87.9039Z" fill="#3F3D56"/>
<path d="M584.859 132.741H476.298V155.159H584.859V132.741Z" fill="#3F3D56"/>
<path d="M584.859 177.578H476.298V199.996H584.859V177.578Z" fill="#3F3D56"/>
<path d="M584.859 222.415H476.298V244.833H584.859V222.415Z" fill="#3F3D56"/>
<path d="M836 315.819H315V316.733H836V315.819Z" fill="#3F3D56"/>
<path d="M404.94 210.208H402.248V316.34H404.94V210.208Z" fill="#3F3D56"/>
<path d="M429.784 223.734C429.955 260.845 403.796 291.051 403.796 291.051C403.796 291.051 377.358 261.087 377.187 223.976C377.016 186.864 403.175 156.658 403.175 156.658C403.175 156.658 429.612 186.622 429.784 223.734Z" fill="#3070B3"/>
<path opacity="0.1" d="M429.784 223.734C429.955 260.845 403.796 291.051 403.796 291.051C403.796 291.051 377.358 261.087 377.187 223.976C377.016 186.864 403.175 156.658 403.175 156.658C403.175 156.658 429.612 186.622 429.784 223.734Z" fill="black"/>
<path d="M369.945 210.208H367.253V316.34H369.945V210.208Z" fill="#3F3D56"/>
<path d="M394.788 223.734C394.96 260.845 368.8 291.051 368.8 291.051C368.8 291.051 342.363 261.087 342.192 223.976C342.02 186.864 368.18 156.658 368.18 156.658C368.18 156.658 394.617 186.622 394.788 223.734Z" fill="#3070B3"/>
<path d="M748.275 75.6105C727.07 75.7081 709.81 76.0208 709.81 76.0208C709.81 76.0208 730.326 48.8961 748.198 58.9456C766.07 68.9951 786.6 75.6675 786.6 75.6675C786.6 75.6675 769.48 75.513 748.275 75.6105Z" fill="#F2F2F2"/>
<path d="M394.985 127.749C373.78 127.847 356.52 128.16 356.52 128.16C356.52 128.16 377.036 101.035 394.908 111.084C412.78 121.134 433.31 127.806 433.31 127.806C433.31 127.806 416.19 127.652 394.985 127.749Z" fill="#F2F2F2"/>
<path d="M471.967 18.8982C450.761 18.9957 433.501 19.3084 433.501 19.3084C433.501 19.3084 454.018 -7.81622 471.89 2.23326C489.761 12.2827 510.292 18.9552 510.292 18.9552C510.292 18.9552 493.172 18.8006 471.967 18.8982Z" fill="#F2F2F2"/>
<path d="M791.968 210.208H789.276V316.34H791.968V210.208Z" fill="#3F3D56"/>
<path d="M816.812 223.734C816.983 260.845 790.824 291.051 790.824 291.051C790.824 291.051 764.387 261.087 764.215 223.976C764.044 186.864 790.203 156.658 790.203 156.658C790.203 156.658 816.641 186.622 816.812 223.734Z" fill="#3070B3"/>
<path d="M692.882 250.462H720.049V243.917H735.038V250.462H763.142V279.449H735.038V315.915H720.049V279.449H692.882L678.829 263.553L692.882 250.462Z" fill="#3F3D56"/>
</g>
<g clip-path="url(#clip1)">
<path d="M65.3688 36.7596H34.961V92.4434H65.3688V36.7596Z" fill="#F2F2F2"/>
<path d="M166.029 220.271H125.136V275.955H166.029V220.271Z" fill="#F2F2F2"/>
<path d="M125.485 134.469H84.9416V195.756H125.485V134.469Z" fill="#F2F2F2"/>
<path d="M166.029 54.6204H125.485V115.908H166.029V54.6204Z" fill="#F2F2F2"/>
<path d="M327.732 316.127H-46.885V317H327.732V316.127Z" fill="#2F2E41"/>
<path d="M216.049 276.345H34.5722V36.37H216.049V276.345ZM35.3498 275.565H215.271V37.1492H35.3498V275.565Z" fill="#3F3D56"/>
<path d="M177.952 276.345H73.0188V36.7203H177.952V276.345ZM73.7964 275.566H177.174V37.4994H73.7964V275.566Z" fill="#3F3D56"/>
<path d="M216.049 196.146H34.5722V115.518H216.049V196.146ZM35.3498 195.367H215.271V116.297H35.3498V195.367Z" fill="#3F3D56"/>
<path d="M73.4076 127.465C79.7776 127.465 84.9416 122.29 84.9416 115.908C84.9416 109.525 79.7776 104.351 73.4076 104.351C67.0375 104.351 61.8736 109.525 61.8736 115.908C61.8736 122.29 67.0375 127.465 73.4076 127.465Z" fill="#3070B3"/>
<path d="M177.563 49.7175C183.933 49.7175 189.097 44.5432 189.097 38.1604C189.097 31.7777 183.933 26.6034 177.563 26.6034C171.193 26.6034 166.029 31.7777 166.029 38.1604C166.029 44.5432 171.193 49.7175 177.563 49.7175Z" fill="#3070B3"/>
<path d="M125.699 37.1098H124.922V275.955H125.699V37.1098Z" fill="#3F3D56"/>
<path d="M256.741 282.383C262.63 300.143 260.562 316.818 260.562 316.818C260.562 316.818 248.945 304.699 243.056 286.94C237.166 269.18 239.235 252.505 239.235 252.505C239.235 252.505 250.851 264.624 256.741 282.383Z" fill="#3070B3"/>
<path d="M264.383 282.383C258.493 300.143 260.562 316.818 260.562 316.818C260.562 316.818 272.178 304.699 278.068 286.94C283.957 269.18 281.889 252.505 281.889 252.505C281.889 252.505 270.272 264.624 264.383 282.383Z" fill="#3070B3"/>
<path d="M266.755 282.575C267.149 301.285 260.261 316.606 260.261 316.606C260.261 316.606 252.732 301.591 252.337 282.881C251.942 264.171 258.831 248.85 258.831 248.85C258.831 248.85 266.36 263.865 266.755 282.575Z" fill="#3F3D56"/>
<path d="M125.485 231.128C144.982 231.128 160.786 215.291 160.786 195.756C160.786 176.221 144.982 160.385 125.485 160.385C105.989 160.385 90.1843 176.221 90.1843 195.756C90.1843 215.291 105.989 231.128 125.485 231.128Z" fill="#3070B3"/>
<path d="M333.939 113.468L333.653 112.744L266.319 139.346L201.928 65.5503L281.861 33.9701L281.576 33.2454L201.385 64.9274L181.498 42.1357L184.776 40.8565C182.544 40.5519 179.688 39.4072 177.618 38.2813C178.455 40.4875 179.206 43.4763 179.209 45.7341L180.912 42.6486L200.617 65.2309L78.3346 113.542L78.2346 110.018C77.1978 112.023 75.1617 114.333 73.4076 115.908C75.7625 115.86 78.8242 116.156 80.9474 116.912L78.6198 114.267L201.16 65.8537L265.551 139.65L130.412 193.04L130.312 189.517C129.275 191.521 127.239 193.831 125.485 195.406C127.84 195.358 130.902 195.654 133.025 196.41L130.698 193.766L266.095 140.272L324.71 207.449L325.296 206.936L266.863 139.969L333.939 113.468Z" fill="#3F3D56"/>
<path d="M367 100.498H300.592V126.064H367V100.498Z" fill="#3F3D56"/>
<path d="M355.291 107.328H312.301V109.429H355.291V107.328Z" fill="#F2F2F2"/>
<path d="M355.291 112.231H312.301V114.332H355.291V112.231Z" fill="#F2F2F2"/>
<path d="M355.291 117.133H312.301V119.235H355.291V117.133Z" fill="#F2F2F2"/>
<path d="M314.922 21H248.515V46.5655H314.922V21Z" fill="#3F3D56"/>
<path d="M303.214 27.8292H260.223V29.9304H303.214V27.8292Z" fill="#F2F2F2"/>
<path d="M303.214 32.7321H260.223V34.8334H303.214V32.7321Z" fill="#F2F2F2"/>
<path d="M303.214 37.6351H260.223V39.7364H303.214V37.6351Z" fill="#F2F2F2"/>
<path d="M358.262 194.355H291.854V219.921H358.262V194.355Z" fill="#3F3D56"/>
<path d="M346.553 201.185H303.563V203.286H346.553V201.185Z" fill="#F2F2F2"/>
<path d="M346.553 206.088H303.563V208.189H346.553V206.088Z" fill="#F2F2F2"/>
<path d="M346.553 210.991H303.563V213.092H346.553V210.991Z" fill="#F2F2F2"/>
<path d="M35.0353 215.693L30.2744 216.223C30.2744 216.223 28.1584 225.758 30.2744 238.472C32.3903 251.186 35.0353 263.9 35.0353 263.9C35.0353 263.9 37.1512 305.22 38.2092 305.75C39.2672 306.28 48.789 309.458 49.318 306.28C49.847 303.101 49.847 230.526 49.847 230.526L57.2529 265.489C57.2529 265.489 58.3109 309.458 60.4269 309.458C62.5428 309.458 69.4197 308.929 69.4197 305.22C69.4197 301.512 71.0067 252.775 71.0067 252.775C71.0067 252.775 70.4777 216.752 68.3617 215.693C66.2458 214.633 35.0353 215.693 35.0353 215.693Z" fill="#2F2E41"/>
<path d="M39.2672 304.161C39.2672 304.161 34.5063 303.631 33.4483 304.161C32.3903 304.691 30.8033 308.399 33.4483 310.518C36.0933 312.637 42.9701 315.815 45.0861 315.815C47.2021 315.815 49.318 314.756 49.318 314.756L48.2601 305.75L39.2672 304.161Z" fill="#2F2E41"/>
<path d="M60.4268 306.81L60.9558 314.226C60.9558 314.226 67.8327 315.286 68.3617 314.226C68.8907 313.167 74.1806 310.518 74.7096 309.988C75.2386 309.458 75.7676 303.631 72.5936 303.101C69.4197 302.572 68.3617 304.161 68.3617 304.161L60.4268 306.81Z" fill="#2F2E41"/>
<path d="M72.7198 152.657C72.7198 152.657 84.2852 145.209 84.0175 140.093C83.7498 134.976 76.7778 118.842 76.7778 118.842C76.7778 118.842 71.3235 107.486 69.1552 112.127C66.9869 116.768 72.0051 121.708 72.0051 121.708L75.244 137.535L66.4414 145.944L72.7198 152.657Z" fill="#A0616A"/>
<path d="M44.0281 142.058C49.2869 142.058 53.55 137.789 53.55 132.522C53.55 127.256 49.2869 122.987 44.0281 122.987C38.7694 122.987 34.5063 127.256 34.5063 132.522C34.5063 137.789 38.7694 142.058 44.0281 142.058Z" fill="#A0616A"/>
<path d="M39.2672 138.35L40.8542 148.415L52.492 146.296C52.492 146.296 51.963 136.231 51.963 135.171C51.963 134.112 39.2672 138.35 39.2672 138.35Z" fill="#A0616A"/>
<path d="M38.7382 148.415C38.7382 148.415 51.963 145.236 53.55 146.296C55.1369 147.355 63.0718 148.415 63.0718 148.415L72.0647 162.188L69.4197 179.67C69.4197 179.67 68.8907 207.747 69.9487 212.514C71.0067 217.282 76.8256 217.812 64.6588 218.871C52.492 219.931 50.376 218.342 41.9122 220.461C33.4483 222.58 26.5714 219.401 28.6874 217.282C30.8033 215.163 34.5063 181.259 30.2744 178.081C26.0424 174.902 24.4554 158.48 24.4554 158.48C24.4554 158.48 38.7382 151.064 38.7382 148.415Z" fill="#3F3D56"/>
<path d="M61.4848 150.004L63.0718 148.415L66.2457 145.236C66.2457 145.236 76.5611 149.739 76.0321 151.328C75.5031 152.918 72.0646 162.188 72.0646 162.188L67.3037 163.777L61.4848 150.004Z" fill="#3F3D56"/>
<path d="M47.3511 120.97L47.2535 120.206C46.6063 120.203 45.9628 120.304 45.3479 120.506C45.285 120.045 45.3251 119.577 45.4655 119.133C44.8407 119.294 44.2453 119.554 43.7016 119.901L43.317 118.507L38.0287 121.117C36.1305 122.054 34.1291 123.084 33.044 124.903C31.8342 126.932 32.0447 129.539 32.8717 131.751C33.6987 133.964 35.0729 135.922 36.1744 138.012C36.5926 138.91 37.0952 139.767 37.6753 140.57C39.6714 143.062 43.5569 143.565 46.3713 142.062C47.41 141.506 48.3537 140.677 48.781 139.578C49.0365 138.921 49.0949 138.207 49.2623 137.522C49.6104 136.098 50.0146 133.158 51.1695 132.258C51.6777 131.861 52.6854 133.175 53.1065 132.687C54.1888 131.433 53.9617 129.498 53.2895 127.983C52.6443 126.461 51.8902 124.988 51.0331 123.576C50.6699 123.008 47.3394 120.878 47.3511 120.97Z" fill="#2F2E41"/>
<path d="M15.9916 171.194C15.9916 171.194 3.29579 183.378 4.88276 189.735C6.46974 196.092 19.1655 214.633 19.1655 214.633C19.1655 214.633 31.3323 220.99 32.9193 214.633C34.5063 208.276 24.4555 209.866 24.4555 209.866L16.5206 190.795L25.5134 178.081L15.9916 171.194Z" fill="#A0616A"/>
<path d="M30.8033 159.54L24.4554 158.48C24.4554 158.48 19.6945 163.778 18.1075 165.897C16.5206 168.016 13.3466 173.313 13.3466 173.313L24.4554 181.259L32.9193 172.253L30.8033 159.54Z" fill="#3F3D56"/>
</g>
<defs>
<clipPath id="clip0">
<rect width="521" height="317" fill="white" transform="translate(315)"/>
</clipPath>
<clipPath id="clip1">
<rect width="431" height="296" fill="white" transform="translate(-64 21)"/>
</clipPath>
</defs>
</svg>
