<svg width="923" height="357" viewBox="0 0 923 357" fill="none" xmlns="http://www.w3.org/2000/svg">
<g clip-path="url(#clip0)">
<path d="M56.3604 346.879C57.3393 350.493 60.692 352.731 60.692 352.731C60.692 352.731 62.4577 349.11 61.4788 345.496C60.5 341.882 57.1473 339.644 57.1473 339.644C57.1473 339.644 55.3816 343.265 56.3604 346.879Z" fill="#3F3D56"/>
<path d="M57.7988 346.103C60.4847 348.714 60.8128 352.728 60.8128 352.728C60.8128 352.728 56.7861 352.508 54.1002 349.897C51.4143 347.286 51.0862 343.272 51.0862 343.272C51.0862 343.272 55.1129 343.491 57.7988 346.103Z" fill="#3070B3"/>
<path d="M656.634 351.206H-0.366364V354.021H656.634V351.206Z" fill="#3F3D56"/>
<path d="M22.8243 250.445H19.4297V352.049H22.8243V250.445Z" fill="#3F3D56"/>
<path d="M39.6926 282.046C39.816 308.815 20.9861 330.602 20.9861 330.602C20.9861 330.602 1.95616 308.989 1.83282 282.221C1.70948 255.453 20.5394 233.666 20.5394 233.666C20.5394 233.666 39.5693 255.278 39.6926 282.046Z" fill="#427DBC"/>
<path d="M478.737 236.314C478.953 283.142 445.965 321.257 445.965 321.257C445.965 321.257 412.627 283.447 412.411 236.619C412.195 189.791 445.183 151.676 445.183 151.676C445.183 151.676 478.521 189.485 478.737 236.314Z" fill="#3070B3"/>
<path d="M170.831 269.751H205.091V261.492H223.992V269.751H259.433V306.327H223.992V352.341H205.091V306.327H170.831L153.111 286.269L170.831 269.751Z" fill="#3F3D56"/>
<g clip-path="url(#clip1)">
<path d="M352.562 103.304V343.852L271.09 332.493L172.053 352.709L171.255 352.872L92.4545 331.156V122.013L174.26 103.304L263.745 122.013L267.147 121.295L352.562 103.304Z" fill="#444053"/>
<path d="M338.872 116.44V331.667L265.978 321.504L177.365 339.592L176.65 339.736L106.144 320.308V133.178L179.342 116.44L259.404 133.178L262.449 132.537L338.872 116.44Z" fill="white"/>
<path opacity="0.1" d="M271.09 332.493L172.053 352.709L174.26 103.304L263.745 122.013L267.147 121.295L271.09 332.493Z" fill="black"/>
<g opacity="0.3">
<path opacity="0.3" d="M261.2 149.409L261.24 219.402H290.29V190.669H340.041L345.884 183.172" stroke="#444053" stroke-width="3" stroke-miterlimit="10"/>
<path opacity="0.3" d="M99.4663 171.626H207.483L214.161 168.619H216.832V236.106H263.578L265.581 242.12V272.523H301.642V310.108" stroke="#444053" stroke-width="3" stroke-miterlimit="10"/>
<path opacity="0.3" d="M231.099 310.108V236.106" stroke="#444053" stroke-width="3" stroke-miterlimit="10"/>
<path opacity="0.3" d="M345.884 290.283H231.099" stroke="#444053" stroke-width="3" stroke-miterlimit="10"/>
<path opacity="0.3" d="M317.135 149.409V310.108" stroke="#444053" stroke-width="3" stroke-miterlimit="10"/>
<path opacity="0.3" d="M99.1324 276.077H345.884" stroke="#444053" stroke-width="3" stroke-miterlimit="10"/>
<path opacity="0.3" d="M129.163 310.108V149.409" stroke="#444053" stroke-width="3" stroke-miterlimit="10"/>
<path opacity="0.3" d="M186.521 149.409V310.108" stroke="#444053" stroke-width="3" stroke-miterlimit="10"/>
<path opacity="0.3" d="M99.4663 190.001L290.29 190.669" stroke="#444053" stroke-width="3" stroke-miterlimit="10"/>
<path opacity="0.3" d="M155.004 149.699V310.108" stroke="#444053" stroke-width="3" stroke-miterlimit="10"/>
<path opacity="0.3" d="M99.1324 227.193H186.52L231.099 276.077" stroke="#444053" stroke-width="3" stroke-miterlimit="10"/>
<path opacity="0.3" d="M240.756 149.409V236.106" stroke="#444053" stroke-width="3" stroke-miterlimit="10"/>
<path opacity="0.3" d="M231.099 251.635H345.884" stroke="#444053" stroke-width="3" stroke-miterlimit="10"/>
</g>
<path d="M265.414 250.973H231.69V236.273L263.578 236.106L265.581 241.786L265.414 250.973Z" fill="#3070B3"/>
<path d="M248.719 174.8C243.824 174.8 239.129 176.746 235.668 180.209C232.206 183.673 230.261 188.37 230.261 193.269C230.261 203.469 248.719 236.607 248.719 236.607C248.719 236.607 267.177 203.482 267.177 193.269C267.177 188.37 265.233 183.673 261.771 180.209C258.309 176.746 253.615 174.8 248.719 174.8ZM248.719 201.147C247.113 201.147 245.543 200.67 244.208 199.777C242.872 198.884 241.832 197.615 241.217 196.131C240.602 194.646 240.442 193.012 240.755 191.436C241.068 189.86 241.842 188.412 242.977 187.276C244.113 186.14 245.56 185.366 247.135 185.052C248.71 184.739 250.343 184.9 251.827 185.515C253.311 186.13 254.579 187.171 255.471 188.507C256.363 189.844 256.84 191.414 256.84 193.021C256.839 195.176 255.983 197.242 254.46 198.765C252.937 200.288 250.872 201.143 248.719 201.143V201.147Z" fill="#3070B3"/>
<path opacity="0.1" d="M248.719 174.8C243.824 174.8 239.129 176.746 235.668 180.209C232.206 183.673 230.261 188.37 230.261 193.269C230.261 203.469 248.719 236.607 248.719 236.607C248.719 236.607 267.177 203.482 267.177 193.269C267.177 188.37 265.233 183.673 261.771 180.209C258.309 176.746 253.615 174.8 248.719 174.8ZM248.719 201.147C247.113 201.147 245.543 200.67 244.208 199.777C242.872 198.884 241.832 197.615 241.217 196.131C240.602 194.646 240.442 193.012 240.755 191.436C241.068 189.86 241.842 188.412 242.977 187.276C244.113 186.14 245.56 185.366 247.135 185.052C248.71 184.739 250.343 184.9 251.827 185.515C253.311 186.13 254.579 187.171 255.471 188.507C256.363 189.844 256.84 191.414 256.84 193.021C256.839 195.176 255.983 197.242 254.46 198.765C252.937 200.288 250.872 201.143 248.719 201.143V201.147Z" fill="black"/>
<path d="M248.719 177.473C243.824 177.473 239.129 179.418 235.668 182.882C232.206 186.346 230.261 191.043 230.261 195.941C230.261 206.141 248.719 239.28 248.719 239.28C248.719 239.28 267.177 206.155 267.177 195.941C267.177 191.043 265.233 186.346 261.771 182.882C258.309 179.418 253.615 177.473 248.719 177.473ZM248.719 203.819C247.113 203.819 245.543 203.343 244.208 202.45C242.872 201.557 241.832 200.288 241.217 198.804C240.602 197.319 240.442 195.685 240.755 194.109C241.068 192.533 241.842 191.085 242.977 189.949C244.113 188.812 245.56 188.039 247.135 187.725C248.71 187.412 250.343 187.573 251.827 188.188C253.311 188.802 254.579 189.844 255.471 191.18C256.363 192.516 256.84 194.087 256.84 195.694C256.839 197.849 255.983 199.914 254.46 201.437C252.937 202.96 250.872 203.816 248.719 203.816V203.819Z" fill="#3070B3"/>
<path opacity="0.1" d="M242.463 352.563C248.128 350.122 251.906 346.25 250.901 343.915C249.896 341.579 244.488 341.665 238.823 344.107C233.158 346.548 229.38 350.42 230.385 352.755C231.39 355.091 236.798 355.005 242.463 352.563Z" fill="#3070B3"/>
<path d="M240.512 349.749C241.877 349.749 242.983 348.301 242.983 346.515C242.983 344.728 241.877 343.281 240.512 343.281C239.147 343.281 238.041 344.728 238.041 346.515C238.041 348.301 239.147 349.749 240.512 349.749Z" fill="#3F3D56"/>
<path d="M240.512 345.793C241.877 345.793 242.983 344.345 242.983 342.559C242.983 340.773 241.877 339.325 240.512 339.325C239.147 339.325 238.041 340.773 238.041 342.559C238.041 344.345 239.147 345.793 240.512 345.793Z" fill="#3F3D56"/>
<path d="M240.512 341.841C241.877 341.841 242.983 340.393 242.983 338.607C242.983 336.82 241.877 335.373 240.512 335.373C239.147 335.373 238.041 336.82 238.041 338.607C238.041 340.393 239.147 341.841 240.512 341.841Z" fill="#3F3D56"/>
<path d="M240.512 337.888C241.877 337.888 242.983 336.44 242.983 334.654C242.983 332.868 241.877 331.42 240.512 331.42C239.147 331.42 238.041 332.868 238.041 334.654C238.041 336.44 239.147 337.888 240.512 337.888Z" fill="#3F3D56"/>
<path d="M240.512 333.933C241.877 333.933 242.983 332.485 242.983 330.699C242.983 328.912 241.877 327.464 240.512 327.464C239.147 327.464 238.041 328.912 238.041 330.699C238.041 332.485 239.147 333.933 240.512 333.933Z" fill="#3F3D56"/>
<path d="M240.512 329.98C241.877 329.98 242.983 328.532 242.983 326.746C242.983 324.96 241.877 323.512 240.512 323.512C239.147 323.512 238.041 324.96 238.041 326.746C238.041 328.532 239.147 329.98 240.512 329.98Z" fill="#3F3D56"/>
<path d="M240.512 326.028C241.877 326.028 242.983 324.58 242.983 322.794C242.983 321.008 241.877 319.56 240.512 319.56C239.147 319.56 238.041 321.008 238.041 322.794C238.041 324.58 239.147 326.028 240.512 326.028Z" fill="#3F3D56"/>
<path d="M231.266 295.736C230.929 295.311 230.622 294.865 230.345 294.399L236.836 293.33L229.824 293.384C229.151 291.918 228.785 290.33 228.746 288.718C228.706 287.106 228.996 285.502 229.597 284.005L239.013 288.877L230.331 282.489C231.144 281.081 232.239 279.856 233.546 278.891C234.852 277.925 236.344 277.239 237.928 276.875C239.511 276.512 241.153 276.478 242.75 276.778C244.347 277.077 245.865 277.702 247.21 278.614C248.555 279.526 249.698 280.705 250.567 282.078C251.437 283.452 252.014 284.989 252.263 286.596C252.513 288.202 252.429 289.843 252.017 291.415C251.604 292.988 250.873 294.458 249.868 295.736C250.389 296.405 250.837 297.129 251.203 297.894L242.786 302.274L251.768 299.267C252.398 301.132 252.554 303.125 252.222 305.066C251.889 307.007 251.077 308.834 249.861 310.382C251.234 312.128 252.088 314.225 252.326 316.434C252.563 318.643 252.175 320.874 251.205 322.872C250.235 324.871 248.723 326.556 246.841 327.734C244.959 328.913 242.784 329.538 240.564 329.538C238.343 329.538 236.168 328.913 234.286 327.734C232.404 326.556 230.892 324.871 229.922 322.872C228.952 320.874 228.564 318.643 228.802 316.434C229.039 314.225 229.893 312.128 231.266 310.382C229.627 308.296 228.735 305.718 228.735 303.064C228.735 300.41 229.627 297.832 231.266 295.746V295.736Z" fill="#3070B3"/>
<path opacity="0.1" d="M252.392 303.042C252.397 305.698 251.505 308.277 249.861 310.362C251.234 312.108 252.088 314.205 252.326 316.414C252.563 318.623 252.175 320.854 251.205 322.852C250.235 324.851 248.723 326.536 246.841 327.714C244.959 328.893 242.784 329.518 240.564 329.518C238.343 329.518 236.168 328.893 234.286 327.714C232.404 326.536 230.892 324.851 229.922 322.852C228.952 320.854 228.564 318.623 228.802 316.414C229.039 314.205 229.893 312.108 231.266 310.362C229.68 308.358 252.392 301.726 252.392 303.042Z" fill="black"/>
</g>
</g>
<g clip-path="url(#clip2)">
<path opacity="0.4" d="M873.493 81.8954C895.304 81.8954 912.985 64.2341 912.985 42.4477C912.985 20.6613 895.304 3 873.493 3C851.681 3 834 20.6613 834 42.4477C834 64.2341 851.681 81.8954 873.493 81.8954Z" fill="#FF6584"/>
<path opacity="0.4" d="M787.704 88.3446C803.004 88.3446 815.408 75.9553 815.408 60.6723C815.408 45.3893 803.004 33 787.704 33C772.403 33 760 45.3893 760 60.6723C760 75.9553 772.403 88.3446 787.704 88.3446Z" fill="#3070B3"/>
<path opacity="0.4" d="M586.121 140.059C601.421 140.059 613.825 127.67 613.825 112.387C613.825 97.104 601.421 84.7147 586.121 84.7147C570.821 84.7147 558.417 97.104 558.417 112.387C558.417 127.67 570.821 140.059 586.121 140.059Z" fill="#3070B3"/>
<path d="M394.573 340.386C396.714 348.291 404.047 353.187 404.047 353.187C404.047 353.187 407.909 345.266 405.768 337.361C403.627 329.456 396.294 324.56 396.294 324.56C396.294 324.56 392.432 332.481 394.573 340.386Z" fill="#3F3D56"/>
<path d="M397.719 338.687C403.593 344.399 404.311 353.18 404.311 353.18C404.311 353.18 395.504 352.7 389.629 346.988C383.754 341.275 383.037 332.494 383.037 332.494C383.037 332.494 391.844 332.975 397.719 338.687Z" fill="#3070B3"/>
<path d="M409.115 280.965L403.887 272.261L452.689 230.477H578.182V242.663L532.865 291.411L480.576 301.857L409.115 280.965Z" fill="#3F3D56"/>
<path d="M599.784 254.997V227.758H583.354V236.348L578.182 230.477L536.351 272.261L529.378 279.224L520.664 314.044L536.351 352.344H616.526V274.002L599.784 254.997Z" fill="#CCCCCC"/>
<path d="M536.351 272.26H403.887V352.344H536.351V272.26Z" fill="#F2F2F2"/>
<path d="M518.05 297.504H490.162V321.878H518.05V297.504Z" fill="#3F3D56"/>
<path d="M478.833 296.634H454.432V352.344H478.833V296.634Z" fill="#CCCCCC"/>
<path d="M426.545 305.338V296.634H416.088V305.338H425.673H426.545Z" fill="#3F3D56"/>
<path d="M425.673 312.302H416.088V321.007H426.545V312.302H425.673Z" fill="#3F3D56"/>
<path d="M443.974 296.634H433.517V305.339H443.974V296.634Z" fill="#3F3D56"/>
<path d="M443.974 312.302H433.517V321.007H443.974V312.302Z" fill="#3F3D56"/>
<path d="M573.824 306.209V297.504H563.366V306.209H572.952H573.824Z" fill="#3F3D56"/>
<path d="M572.952 313.173H563.366V321.877H573.824V313.173H572.952Z" fill="#3F3D56"/>
<path d="M591.254 297.504H580.796V306.209H591.254V297.504Z" fill="#3F3D56"/>
<path d="M591.254 313.173H580.796V321.878H591.254V313.173Z" fill="#3F3D56"/>
<path d="M677.529 134.725L668.815 127.76L717.618 84.236H841.366V122.538L761.191 176.508L677.529 134.725Z" fill="#3F3D56"/>
<path d="M863.929 108.651V85.1058H847.499V90.8725L841.367 84.236L801.278 127.76L785.593 138.207L761.27 315.705L797.951 352.344H883.198V129.501L863.929 108.651Z" fill="#CCCCCC"/>
<path d="M801.279 127.761H668.815V352.345H801.279V127.761Z" fill="#F2F2F2"/>
<path d="M744.633 297.504H720.232V352.344H744.633V297.504Z" fill="#CCCCCC"/>
<path d="M694.087 313.173V304.468H683.63V313.173H693.216H694.087Z" fill="#3F3D56"/>
<path d="M693.216 320.136H683.63V328.842H694.087V320.136H693.216Z" fill="#3F3D56"/>
<path d="M711.517 304.468H701.059V313.173H711.517V304.468Z" fill="#3F3D56"/>
<path d="M711.517 320.137H701.059V328.841H711.517V320.137Z" fill="#3F3D56"/>
<path d="M765.548 313.173V304.468H755.091V313.173H764.677H765.548Z" fill="#3F3D56"/>
<path d="M764.677 320.136H755.091V328.842H765.548V320.136H764.677Z" fill="#3F3D56"/>
<path d="M782.978 304.468H772.52V313.173H782.978V304.468Z" fill="#3F3D56"/>
<path d="M782.978 320.137H772.52V328.841H782.978V320.137Z" fill="#3F3D56"/>
<path d="M838.752 139.076V130.372H828.294V139.076H837.881H838.752Z" fill="#3F3D56"/>
<path d="M837.881 146.041H828.294V154.745H838.752V146.041H837.881Z" fill="#3F3D56"/>
<path d="M856.182 130.372H845.724V139.077H856.182V130.372Z" fill="#3F3D56"/>
<path d="M856.182 146.041H845.724V154.745H856.182V146.041Z" fill="#3F3D56"/>
<path d="M838.752 187.824V179.119H828.294V187.824H837.881H838.752Z" fill="#3F3D56"/>
<path d="M837.881 194.788H828.294V203.492H838.752V194.788H837.881Z" fill="#3F3D56"/>
<path d="M856.182 179.119H845.724V187.824H856.182V179.119Z" fill="#3F3D56"/>
<path d="M856.182 194.788H845.724V203.492H856.182V194.788Z" fill="#3F3D56"/>
<path d="M838.752 236.571V227.865H828.294V236.571H837.881H838.752Z" fill="#3F3D56"/>
<path d="M837.881 243.535H828.294V252.239H838.752V243.535H837.881Z" fill="#3F3D56"/>
<path d="M856.182 227.866H845.724V236.571H856.182V227.866Z" fill="#3F3D56"/>
<path d="M856.182 243.534H845.724V252.239H856.182V243.534Z" fill="#3F3D56"/>
<path d="M838.752 285.318V276.612H828.294V285.318H837.881H838.752Z" fill="#3F3D56"/>
<path d="M837.881 292.281H828.294V300.986H838.752V292.281H837.881Z" fill="#3F3D56"/>
<path d="M856.182 276.613H845.724V285.318H856.182V276.613Z" fill="#3F3D56"/>
<path d="M856.182 292.281H845.724V300.986H856.182V292.281Z" fill="#3F3D56"/>
<path d="M784.721 139.077H683.63V159.968H784.721V139.077Z" fill="#3F3D56"/>
<path d="M784.721 180.86H683.63V201.751H784.721V180.86Z" fill="#3F3D56"/>
<path d="M784.721 222.643H683.63V243.534H784.721V222.643Z" fill="#3F3D56"/>
<path d="M784.721 264.426H683.63V285.318H784.721V264.426Z" fill="#3F3D56"/>
<path d="M927 351.475H310V354H927V351.475Z" fill="#3F3D56"/>
<path d="M644.018 251.745H641.491V351.475H644.018V251.745Z" fill="#3F3D56"/>
<path d="M667.346 264.454C667.507 299.328 642.944 327.712 642.944 327.712C642.944 327.712 618.12 299.555 617.959 264.682C617.798 229.808 642.361 201.424 642.361 201.424C642.361 201.424 667.185 229.581 667.346 264.454Z" fill="#3070B3"/>
<path d="M896.789 251.745H894.261V351.475H896.789V251.745Z" fill="#3F3D56"/>
<path d="M920.117 264.454C920.278 299.328 895.714 327.712 895.714 327.712C895.714 327.712 870.89 299.555 870.729 264.682C870.568 229.808 895.132 201.424 895.132 201.424C895.132 201.424 919.956 229.581 920.117 264.454Z" fill="#3070B3"/>
<path d="M369.559 63.402C345.546 63.5125 326 63.8666 326 63.8666C326 63.8666 349.233 33.1482 369.472 44.5292C389.711 55.9101 412.96 63.4666 412.96 63.4666C412.96 63.4666 393.573 63.2915 369.559 63.402Z" fill="#F2F2F2"/>
</g>
<defs>
<clipPath id="clip0">
<rect width="657" height="400" fill="white" transform="translate(-124 -46)"/>
</clipPath>
<clipPath id="clip1">
<rect width="308.456" height="251.811" fill="white" transform="translate(69.7593 103.304)"/>
</clipPath>
<clipPath id="clip2">
<rect width="1437" height="654" fill="white" transform="translate(323 -300)"/>
</clipPath>
</defs>
</svg>
