<svg width="791" height="351" viewBox="0 0 791 351" fill="none" xmlns="http://www.w3.org/2000/svg">
<g clip-path="url(#clip0)">
<path d="M36.3605 343.879C37.3394 347.493 40.692 349.731 40.692 349.731C40.692 349.731 42.4578 346.11 41.4789 342.496C40.5001 338.882 37.1474 336.644 37.1474 336.644C37.1474 336.644 35.3817 340.265 36.3605 343.879Z" fill="#3F3D56"/>
<path d="M37.7987 343.103C40.4847 345.714 40.8127 349.728 40.8127 349.728C40.8127 349.728 36.7861 349.508 34.1002 346.897C31.4143 344.286 31.0862 340.272 31.0862 340.272C31.0862 340.272 35.1128 340.491 37.7987 343.103Z" fill="#3070B3"/>
<path d="M20.8243 247.445H17.4297V349.049H20.8243V247.445Z" fill="#3F3D56"/>
<path d="M37.6927 279.046C37.816 305.815 18.9861 327.602 18.9861 327.602C18.9861 327.602 -0.0437823 305.989 -0.167121 279.221C-0.29046 252.453 18.5394 230.666 18.5394 230.666C18.5394 230.666 37.5693 252.278 37.6927 279.046Z" fill="#427DBC"/>
<path d="M349.737 233.314C349.953 280.142 316.965 318.257 316.965 318.257C316.965 318.257 283.627 280.447 283.411 233.619C283.195 186.791 316.183 148.676 316.183 148.676C316.183 148.676 349.521 186.485 349.737 233.314Z" fill="#3070B3"/>
<path d="M117.167 266.273H138.756V258H150.667V266.273H173V302.909H150.667V349H138.756V302.909H117.167L106 282.818L117.167 266.273Z" fill="#3F3D56"/>
<g clip-path="url(#clip1)">
<path d="M250.624 149V340.055L185.913 331.033L107.25 347.089L106.616 347.219L44.0264 329.971V163.86L109.003 149L180.079 163.86L182.781 163.289L250.624 149Z" fill="#444053"/>
<path d="M239.751 159.434V330.377L181.853 322.305L111.469 336.672L110.901 336.786L54.8999 321.355V172.728L113.039 159.434L176.631 172.728L179.049 172.218L239.751 159.434Z" fill="white"/>
<path opacity="0.1" d="M185.913 331.033L107.25 347.089L109.003 149L180.079 163.86L182.781 163.289L185.913 331.033Z" fill="black"/>
<g opacity="0.3">
<path opacity="0.3" d="M178.058 185.619L178.089 241.211H201.163V218.39H240.679L245.32 212.436" stroke="#444053" stroke-width="3" stroke-miterlimit="10"/>
<path opacity="0.3" d="M49.5957 203.265H135.391L140.695 200.877H142.817V254.478H179.946L181.537 259.255V283.402H210.18V313.254" stroke="#444053" stroke-width="3" stroke-miterlimit="10"/>
<path opacity="0.3" d="M154.149 313.254V254.478" stroke="#444053" stroke-width="3" stroke-miterlimit="10"/>
<path opacity="0.3" d="M245.32 297.508H154.149" stroke="#444053" stroke-width="3" stroke-miterlimit="10"/>
<path opacity="0.3" d="M222.485 185.619V313.254" stroke="#444053" stroke-width="3" stroke-miterlimit="10"/>
<path opacity="0.3" d="M49.3306 286.225H245.32" stroke="#444053" stroke-width="3" stroke-miterlimit="10"/>
<path opacity="0.3" d="M73.1836 313.254V185.619" stroke="#444053" stroke-width="3" stroke-miterlimit="10"/>
<path opacity="0.3" d="M118.741 185.619V313.254" stroke="#444053" stroke-width="3" stroke-miterlimit="10"/>
<path opacity="0.3" d="M49.5957 217.859L201.163 218.39" stroke="#444053" stroke-width="3" stroke-miterlimit="10"/>
<path opacity="0.3" d="M93.708 185.85V313.254" stroke="#444053" stroke-width="3" stroke-miterlimit="10"/>
<path opacity="0.3" d="M49.3306 247.399H118.741L154.149 286.225" stroke="#444053" stroke-width="3" stroke-miterlimit="10"/>
<path opacity="0.3" d="M161.819 185.619V254.478" stroke="#444053" stroke-width="3" stroke-miterlimit="10"/>
<path opacity="0.3" d="M154.149 266.812H245.32" stroke="#444053" stroke-width="3" stroke-miterlimit="10"/>
</g>
<path d="M181.405 266.287H154.618V254.611L179.946 254.478L181.537 258.989L181.405 266.287Z" fill="#3070B3"/>
<path d="M168.144 205.786C164.256 205.786 160.527 207.331 157.777 210.082C155.028 212.833 153.483 216.564 153.483 220.455C153.483 228.556 168.144 254.876 168.144 254.876C168.144 254.876 182.805 228.566 182.805 220.455C182.805 216.564 181.26 212.833 178.511 210.082C175.761 207.331 172.032 205.786 168.144 205.786V205.786ZM168.144 226.712C166.868 226.712 165.621 226.333 164.561 225.624C163.5 224.915 162.673 223.907 162.185 222.728C161.697 221.549 161.569 220.251 161.818 218.999C162.067 217.747 162.681 216.597 163.583 215.695C164.485 214.792 165.635 214.178 166.886 213.929C168.137 213.68 169.434 213.808 170.612 214.296C171.791 214.784 172.798 215.612 173.507 216.673C174.216 217.734 174.594 218.982 174.594 220.258C174.593 221.969 173.913 223.61 172.704 224.82C171.494 226.029 169.854 226.709 168.144 226.709V226.712Z" fill="#3070B3"/>
<path opacity="0.1" d="M168.144 205.786C164.256 205.786 160.527 207.331 157.777 210.082C155.028 212.833 153.483 216.564 153.483 220.455C153.483 228.556 168.144 254.876 168.144 254.876C168.144 254.876 182.805 228.566 182.805 220.455C182.805 216.564 181.26 212.833 178.511 210.082C175.761 207.331 172.032 205.786 168.144 205.786V205.786ZM168.144 226.712C166.868 226.712 165.621 226.333 164.561 225.624C163.5 224.915 162.673 223.907 162.185 222.728C161.697 221.549 161.569 220.251 161.818 218.999C162.067 217.747 162.681 216.597 163.583 215.695C164.485 214.792 165.635 214.178 166.886 213.929C168.137 213.68 169.434 213.808 170.612 214.296C171.791 214.784 172.798 215.612 173.507 216.673C174.216 217.734 174.594 218.982 174.594 220.258C174.593 221.969 173.913 223.61 172.704 224.82C171.494 226.029 169.854 226.709 168.144 226.709V226.712Z" fill="black"/>
<path d="M168.144 207.909C164.256 207.909 160.527 209.454 157.777 212.205C155.028 214.956 153.483 218.687 153.483 222.577C153.483 230.679 168.144 256.999 168.144 256.999C168.144 256.999 182.805 230.689 182.805 222.577C182.805 218.687 181.26 214.956 178.511 212.205C175.761 209.454 172.032 207.909 168.144 207.909V207.909ZM168.144 228.834C166.868 228.834 165.621 228.456 164.561 227.747C163.5 227.038 162.673 226.03 162.185 224.851C161.697 223.671 161.569 222.374 161.818 221.122C162.067 219.87 162.681 218.72 163.583 217.818C164.485 216.915 165.635 216.301 166.886 216.052C168.137 215.803 169.434 215.93 170.612 216.419C171.791 216.907 172.798 217.734 173.507 218.796C174.216 219.857 174.594 221.105 174.594 222.381C174.593 224.092 173.913 225.733 172.704 226.943C171.494 228.152 169.854 228.832 168.144 228.832V228.834Z" fill="#3070B3"/>
</g>
<path d="M399.63 348.206H-0.370117V351.021H399.63V348.206Z" fill="#C5C5CC"/>
</g>
<g clip-path="url(#clip2)">
<path opacity="0.4" d="M744.493 78.8954C766.304 78.8954 783.985 61.2341 783.985 39.4477C783.985 17.6613 766.304 0 744.493 0C722.681 0 705 17.6613 705 39.4477C705 61.2341 722.681 78.8954 744.493 78.8954Z" fill="#FF6584"/>
<path opacity="0.4" d="M658.704 85.3446C674.004 85.3446 686.408 72.9553 686.408 57.6723C686.408 42.3893 674.004 30 658.704 30C643.403 30 631 42.3893 631 57.6723C631 72.9553 643.403 85.3446 658.704 85.3446Z" fill="#3070B3"/>
<path opacity="0.4" d="M457.121 137.059C472.422 137.059 484.825 124.67 484.825 109.387C484.825 94.104 472.422 81.7147 457.121 81.7147C441.821 81.7147 429.417 94.104 429.417 109.387C429.417 124.67 441.821 137.059 457.121 137.059Z" fill="#3070B3"/>
<path d="M265.573 337.386C267.714 345.291 275.047 350.187 275.047 350.187C275.047 350.187 278.909 342.266 276.768 334.361C274.627 326.456 267.294 321.56 267.294 321.56C267.294 321.56 263.432 329.481 265.573 337.386Z" fill="#3F3D56"/>
<path d="M268.719 335.687C274.593 341.399 275.311 350.18 275.311 350.18C275.311 350.18 266.504 349.7 260.629 343.988C254.754 338.275 254.037 329.494 254.037 329.494C254.037 329.494 262.844 329.975 268.719 335.687Z" fill="#3070B3"/>
<path d="M280.115 277.965L274.886 269.261L323.689 227.477H449.182V239.663L403.865 288.411L351.576 298.857L280.115 277.965Z" fill="#3F3D56"/>
<path d="M470.784 251.997V224.758H454.354V233.348L449.182 227.477L407.351 269.261L400.378 276.224L391.664 311.044L407.351 349.344H487.526V271.002L470.784 251.997Z" fill="#CCCCCC"/>
<path d="M407.351 269.26H274.886V349.344H407.351V269.26Z" fill="#F2F2F2"/>
<path d="M389.05 294.504H361.162V318.878H389.05V294.504Z" fill="#3F3D56"/>
<path d="M349.833 293.634H325.432V349.344H349.833V293.634Z" fill="#CCCCCC"/>
<path d="M297.545 302.338V293.634H287.088V302.338H296.673H297.545Z" fill="#3F3D56"/>
<path d="M296.673 309.302H287.088V318.007H297.545V309.302H296.673Z" fill="#3F3D56"/>
<path d="M314.974 293.634H304.517V302.339H314.974V293.634Z" fill="#3F3D56"/>
<path d="M314.974 309.302H304.517V318.007H314.974V309.302Z" fill="#3F3D56"/>
<path d="M444.824 303.209V294.504H434.366V303.209H443.952H444.824Z" fill="#3F3D56"/>
<path d="M443.952 310.173H434.366V318.877H444.824V310.173H443.952Z" fill="#3F3D56"/>
<path d="M462.254 294.504H451.796V303.209H462.254V294.504Z" fill="#3F3D56"/>
<path d="M462.254 310.173H451.796V318.878H462.254V310.173Z" fill="#3F3D56"/>
<path d="M548.529 131.725L539.815 124.76L588.618 81.236H712.366V119.538L632.191 173.508L548.529 131.725Z" fill="#3F3D56"/>
<path d="M734.929 105.651V82.1058H718.499V87.8725L712.367 81.236L672.278 124.76L656.593 135.207L632.27 312.705L668.951 349.344H754.198V126.501L734.929 105.651Z" fill="#CCCCCC"/>
<path d="M672.279 124.761H539.815V349.345H672.279V124.761Z" fill="#F2F2F2"/>
<path d="M615.633 294.504H591.232V349.344H615.633V294.504Z" fill="#CCCCCC"/>
<path d="M565.087 310.173V301.468H554.63V310.173H564.216H565.087Z" fill="#3F3D56"/>
<path d="M564.216 317.136H554.63V325.842H565.087V317.136H564.216Z" fill="#3F3D56"/>
<path d="M582.517 301.468H572.059V310.173H582.517V301.468Z" fill="#3F3D56"/>
<path d="M582.517 317.137H572.059V325.841H582.517V317.137Z" fill="#3F3D56"/>
<path d="M636.548 310.173V301.468H626.091V310.173H635.677H636.548Z" fill="#3F3D56"/>
<path d="M635.677 317.136H626.091V325.842H636.548V317.136H635.677Z" fill="#3F3D56"/>
<path d="M653.978 301.468H643.52V310.173H653.978V301.468Z" fill="#3F3D56"/>
<path d="M653.978 317.137H643.52V325.841H653.978V317.137Z" fill="#3F3D56"/>
<path d="M709.752 136.076V127.372H699.294V136.076H708.881H709.752Z" fill="#3F3D56"/>
<path d="M708.881 143.041H699.294V151.745H709.752V143.041H708.881Z" fill="#3F3D56"/>
<path d="M727.182 127.372H716.724V136.077H727.182V127.372Z" fill="#3F3D56"/>
<path d="M727.182 143.041H716.724V151.745H727.182V143.041Z" fill="#3F3D56"/>
<path d="M709.752 184.824V176.119H699.294V184.824H708.881H709.752Z" fill="#3F3D56"/>
<path d="M708.881 191.788H699.294V200.492H709.752V191.788H708.881Z" fill="#3F3D56"/>
<path d="M727.182 176.119H716.724V184.824H727.182V176.119Z" fill="#3F3D56"/>
<path d="M727.182 191.788H716.724V200.492H727.182V191.788Z" fill="#3F3D56"/>
<path d="M709.752 233.571V224.865H699.294V233.571H708.881H709.752Z" fill="#3F3D56"/>
<path d="M708.881 240.535H699.294V249.239H709.752V240.535H708.881Z" fill="#3F3D56"/>
<path d="M727.182 224.866H716.724V233.571H727.182V224.866Z" fill="#3F3D56"/>
<path d="M727.182 240.534H716.724V249.239H727.182V240.534Z" fill="#3F3D56"/>
<path d="M709.752 282.318V273.612H699.294V282.318H708.881H709.752Z" fill="#3F3D56"/>
<path d="M708.881 289.281H699.294V297.986H709.752V289.281H708.881Z" fill="#3F3D56"/>
<path d="M727.182 273.613H716.724V282.318H727.182V273.613Z" fill="#3F3D56"/>
<path d="M727.182 289.281H716.724V297.986H727.182V289.281Z" fill="#3F3D56"/>
<path d="M655.721 136.077H554.63V156.968H655.721V136.077Z" fill="#3F3D56"/>
<path d="M655.721 177.86H554.63V198.751H655.721V177.86Z" fill="#3F3D56"/>
<path d="M655.721 219.643H554.63V240.534H655.721V219.643Z" fill="#3F3D56"/>
<path d="M655.721 261.426H554.63V282.318H655.721V261.426Z" fill="#3F3D56"/>
<path d="M791 348.475H174V351H791V348.475Z" fill="#C5C5CC"/>
<path d="M515.018 248.745H512.491V348.475H515.018V248.745Z" fill="#3F3D56"/>
<path d="M538.346 261.454C538.507 296.328 513.944 324.712 513.944 324.712C513.944 324.712 489.12 296.555 488.959 261.682C488.798 226.808 513.361 198.424 513.361 198.424C513.361 198.424 538.185 226.581 538.346 261.454Z" fill="#3070B3"/>
<path d="M767.789 248.745H765.261V348.475H767.789V248.745Z" fill="#3F3D56"/>
<path d="M791.117 261.454C791.278 296.328 766.714 324.712 766.714 324.712C766.714 324.712 741.89 296.555 741.729 261.682C741.568 226.808 766.132 198.424 766.132 198.424C766.132 198.424 790.956 226.581 791.117 261.454Z" fill="#3070B3"/>
<path d="M240.559 60.402C216.546 60.5125 197 60.8666 197 60.8666C197 60.8666 220.233 30.1482 240.472 41.5292C260.711 52.9101 283.96 60.4666 283.96 60.4666C283.96 60.4666 264.573 60.2915 240.559 60.402Z" fill="#F2F2F2"/>
</g>
<defs>
<clipPath id="clip0">
<rect width="657" height="400" fill="white" transform="translate(-253 -49)"/>
</clipPath>
<clipPath id="clip1">
<rect width="245" height="200" fill="white" transform="translate(26 149)"/>
</clipPath>
<clipPath id="clip2">
<rect width="1437" height="654" fill="white" transform="translate(194 -303)"/>
</clipPath>
</defs>
</svg>
